<?xml version="1.0" encoding="utf-8"?>
<!-- Generator: Adobe Illustrator 27.5.0, SVG Export Plug-In . SVG Version: 6.00 Build 0)  -->
<svg version="1.1" id="Layer_1" xmlns="http://www.w3.org/2000/svg" xmlns:xlink="http://www.w3.org/1999/xlink" x="0px" y="0px"
	 viewBox="0 0 2000 2000" style="enable-background:new 0 0 2000 2000;" xml:space="preserve">
<rect style="fill:#FFFFFF;" width="2000" height="2000"/>
<g>
	<g id="XMLID_8_">
		<path style="fill:#FF8B8F;" d="M1671.392,1900c-846.523-1.915-514.486-1.874-1342.567,0c0-232.308-10.075-391.79,106.802-433.531
			c-0.131,0.129-0.131,0.258-0.131,0.387c87.563-31.884,51.949-18.453,156.135-58.889c64.484,155.414,214.906,262.185,346.618,290.7
			l54.712,94.572c3.181,5.5,11.121,5.504,14.309,0.007l54.828-94.579c132.268-28.635,282.238-135.568,346.749-290.7
			c103.875,40.44,68.321,27.007,155.875,58.889c0-0.129,0-0.258-0.129-0.387c117.625,42.008,104.477,211.31,104.477,352.3
			C1669.068,1873.002,1671.392,1900,1671.392,1900z"/>
		<path style="fill:#FFCABB;" d="M1366.357,733.454c-10.073,38.588-7.388,28.238-12.269,47.266
			c-7.173,26.069-35.431,56.534-60.827,44.684c-0.383-12.278-0.121-2.906-1.291-48.944c35.365-9.534,30.7-7.367,50.753-61.344
			C1352.147,721.399,1360.281,725.191,1366.357,733.454z"/>
		<path style="fill:#F9BBB0;" d="M1291.971,776.46l1.033,40.68l-4.391-146.061c13.431,14.206,30.995,28.8,54.111,44.038
			C1322.139,770.52,1326.481,767.157,1291.971,776.46z"/>
		<path style="fill:#FFCABB;" d="M879.877,1093.634l-40.292-32.802v-0.129h-0.129C688.331,937.563,702.381,939.2,712.894,627.299
			c63.022-153.808-30.864-148.126,260.998-383.682c382.262,218.121,202.754,308.651,314.72,427.462
			c7.756,257.962,24.25,265.689-127.85,389.624h-0.129v0.129l-40.293,32.802C1065.942,1137.996,935.407,1138.918,879.877,1093.634z"
			/>
		<path style="fill:#F37078;" d="M1062.097,1698.668l-54.828,94.579c-3.188,5.496-11.128,5.493-14.309-0.007l-54.712-94.572
			C979.059,1707.448,1021.288,1707.448,1062.097,1698.668z"/>
		<path style="fill:#F37078;" d="M1385.47,1398.926c-73.552,153.91-225.024,238.854-316.658,261.256
			c-169.972,42.978-375.442-97.097-454.066-261.256l-23.115,9.042c77.775,187.446,313.941,349.315,507.659,279.981
			c135.471-49.075,250.536-138.054,309.556-279.981C1397.377,1403.472,1401.733,1405.159,1385.47,1398.926z"/>
		<path style="fill:#5C362E;" d="M943.932,155.282c-90.571-22.11-253.12,52.942-253.12,335.256c0,45.975-2.582,74.515,0.258,122.168
			c17.596,21.844,12.83,16.103,21.438,26.086c0.004-0.102,0.388-11.492,0.388-11.492c63.022-153.81-30.866-148.128,260.996-383.684
			L943.932,155.282z M973.893,243.617c435.992,248.781,142.05,334.484,381.1,479.377c4.131,2.582,8.135,6.069,11.364,10.46
			l-8.395,32.157l1.293,0.387c49.591-31.465,82.506-243.856,65.491-334.349C1381.595,202.165,1288.613,116.514,1131.253,101
			c-49.865-4.916-174.149,7.533-187.32,54.282L973.893,243.617z"/>
		<path style="fill:#F9BBB0;" d="M712.508,638.923l-5.295,178.217l1.034-40.68c-37.509-10.112-30.252-5.705-59.147-83.944
			c-11.477-25.825,18.571-54.828,43.78-37.451l18.596,12.785L712.508,638.923z"/>
		<path style="fill:#FFCABB;" d="M712.508,638.792c0,0.201-1.026,28.858-1.033,29.058l-18.596-12.785
			c-25.543-17.606-55.065,12.062-43.78,37.451c29.386,79.567,22.418,74.042,59.147,83.944c-1.169,46.039-0.908,36.667-1.291,48.944
			c-7.885,3.679-16.928,3.614-24.666-0.129c-36.641-18.716-35.732-42.907-67.929-166.982c-11.656-43.71,40.885-76.825,75.678-46.75
			C690.037,611.544,704.467,629.466,712.508,638.792z"/>
		<path style="fill:#F9BBB0;" d="M1000.108,1126.436c90.565,0,107.045-22.067,160.525-65.604
			c-4.99,23.836-28.484,110.776,6.456,187.644c18.158,43.576,54.265,80.275,82.006,94.146c0-0.202,0.47-2.13,0.516-2.325
			c17.712,16.49,42.301,22.284,135.859,58.631c-67.257,140.738-207.488,234.569-316.658,261.254
			c-169.972,42.978-375.442-97.096-454.066-261.254c1.747-0.68,115.684-44.656,117.004-45.975
			c7.062-3.259,13.807-7.957,18.856-12.656c0.046,0.194,0.516,2.123,0.516,2.325c84.816-49.893,112.342-146.137,96.599-241.239
			c-1.291-8.395-4.778-23.891-8.135-40.551C893.084,1104.385,909.55,1126.436,1000.108,1126.436z"/>
	</g>
</g>
</svg>
