<?xml version="1.0" encoding="utf-8"?>
<!-- Generator: Adobe Illustrator 27.5.0, SVG Export Plug-In . SVG Version: 6.00 Build 0)  -->
<svg version="1.1" id="Layer_1" xmlns="http://www.w3.org/2000/svg" xmlns:xlink="http://www.w3.org/1999/xlink" x="0px" y="0px"
	 viewBox="0 0 2000 2000" style="enable-background:new 0 0 2000 2000;" xml:space="preserve">
<g id="XMLID_11_">
	<path style="fill:#B84742;" d="M1298.616,659.166c8.706-7.462,19.526-11.194,30.47-11.07
		C1321.872,662.025,1311.675,666.876,1298.616,659.166z"/>
	<path style="fill:#FFC3BB;" d="M1280.085,711.898l-0.871-29.103c5.685-6.573,13.18-15.952,19.402-23.629
		c13.059,7.711,23.256,2.86,30.47-11.07c28.225,0.462,49.968,27.747,42.41,56.091c-31.141,120.004-30.31,142.878-65.418,160.81
		c-7.452,3.606-16.161,3.669-23.755,0.124c-1.114-35.667,1.293-21.096,0.621-47.634c33.292-8.988,27.099-4.538,55.096-80.343
		c10.747-24.178-17.332-53.182-42.162-36.067L1280.085,711.898z"/>
	<path style="fill:#B84742;" d="M1282.944,817.487c0.25,9.825-0.124,19.526-1.119,29.103l-0.745-28.604L1282.944,817.487z"/>
	<path style="fill:#FFB6A8;" d="M1282.944,817.487c0,0-1.17-42.665-2.859-105.589l15.794-10.82
		c24.598-16.956,53.03,11.616,42.162,36.067C1310.262,812.355,1316.391,808.456,1282.944,817.487z"/>
	<path style="fill:#B84742;" d="M1279.214,682.795l0.871,29.103l-2.115,1.494c-0.007-0.194-0.995-27.792-0.995-27.984
		L1279.214,682.795z"/>
	<path style="fill:#FFC3BB;" d="M718.929,817.985l-1.866-0.498c0,0,1.172-42.665,2.861-105.589l2.114,1.494
		c0.007-0.194,0.995-27.792,0.995-27.984l-2.239-2.613c0.228-8.505,5.62-215.523,6.467-223.989
		c31.091-84.696,74.746-179.589,166.779-198.494c0.248,0,0.622,0,0.871,0c8.085,0,5.596,23.879,19.774,26.74
		c0-24.282,19.39-44.4,32.835-44.4c0.869,0,10.322,19.154,21.515,19.154c10.82,0,24.129-8.956,35.818-8.956
		c19.65,0,23.506,29.601,41.913,29.601c15.92,0,23.008-20.148,37.186-20.148c0.91,0,28.336,9.949,37.933,9.949
		c174.884-10.286,152.628,235.342,157.328,410.544l-2.238,2.613c0,0.192,0.988,27.79,0.995,27.984l2.115-1.494
		c1.459,54.4,2.859,105.589,2.859,105.589l-1.864,0.498c3.216,123.304-65.536,169.053-126.361,223.242h-0.124v0.126
		c-69.257,61.266-57.013,56.712-154.591,56.712c-97.11,0-85.111,4.751-154.593-56.712v-0.126h-0.124
		C784.62,987.666,715.712,941.32,718.929,817.985z"/>
	<path style="fill:#FFB6A8;" d="M845.288,1041.228h0.124v0.126c69.259,61.266,57.014,56.712,154.593,56.712
		c97.108,0,85.109,4.751,154.591-56.712v-0.126h0.124l13.681-12.188c-8.582,129.967,10.572,284.433,102.978,334.181
		c0-0.248,0.497-1.99,0.621-2.238c2.737,2.363,5.971,4.726,9.453,6.716c-60.133,56.532-199.719,56.986-281.448,50.743
		c-82.142,6.231-221.462,5.768-281.572-50.743c3.482-1.99,6.716-4.353,9.451-6.716c0.124,0.248,0.623,1.99,0.623,2.238
		c92.406-49.748,111.56-204.214,102.978-334.181L845.288,1041.228z"/>
	<path style="fill:#B84742;" d="M723.034,685.408c0,0.192-0.988,27.79-0.995,27.984l-2.114-1.494l0.871-29.103L723.034,685.408z"/>
	<path style="fill:#564641;" d="M1152.979,134.698c-5.971,0-13.183,2.861-17.784,2.861c-39.204-28.736-93.539-15.546-120.888-15.546
		c-40.918,0-79.846-22.013-79.97-22.013c-166.779,0-259.309,183.195-259.309,352.712c0,198.368,8.083,114.544,8.706,196.999
		C701,654.452,702,661.064,720.795,682.795c2.866-106.831,1.694-64.275,5.845-212.548c0.643-19.894,51.914-186.215,167.401-209.936
		c0.25,0,0.622,0,0.871,0c8.083,0,5.596,23.879,19.776,26.74c0-20.77,14.799-41.914,32.583-44.4c0,0,11.49,19.154,21.765,19.154
		c10.82,0,24.129-8.956,35.818-8.956c19.65,0,23.506,29.601,41.913,29.601c15.92,0,23.008-20.148,37.186-20.148
		c4.229,0,26.118,9.949,37.064,9.949c57.532,0,95.358,23.824,116.534,58.454c43.177,91.187,35.706,130.082,41.663,352.09
		c16.466-19.043,23.206-35.002,49.872-34.699C1373.859,562.405,1311.675,134.698,1152.979,134.698z"/>
	<path style="fill:#B84742;" d="M718.929,817.985l-0.747,28.604c-0.995-9.577-1.368-19.278-1.119-29.103L718.929,817.985z"/>
	<path style="fill:#FFB6A8;" d="M717.063,817.487c-16.034-4.329-27.737-6.226-33.828-22.76c-2.97-8.041-23.38-59.997-23.38-68.528
		c0-24.071,25.366-38.157,44.274-25.122l15.796,10.82C718.463,766.298,717.063,817.487,717.063,817.487z"/>
	<path style="fill:#FFC3BB;" d="M628.513,704.187c-8.792-32.973,21.7-63.484,55.22-54.474c18.364,5.042,24.267,18.29,37.062,33.082
		l-0.871,29.103l-15.796-10.82c-24.597-16.956-53.028,11.616-42.16,36.067c27.776,75.211,21.649,71.312,55.094,80.343
		c-0.677,26.79,1.735,12.026,0.622,47.634c-7.593,3.545-16.304,3.482-23.755-0.124C658.644,846.972,659.519,823.675,628.513,704.187
		z"/>
	<path style="fill:#00A0B2;" d="M1604.067,1482.492c124.495,40.668,112.679,200.234,112.679,417.508
		c-918.794-1.825-514.798-1.827-1433.484,0c0-217.274-11.94-376.84,112.554-417.508c-0.124,0.125-0.124,0.248-0.124,0.373
		c5.472-1.866,308.064-105.838,312.293-109.694c3.606-1.492,7.214-3.358,10.448-5.472c70.048,65.854,235.219,52.858,335.673,52.858
		c96.385,0,179.589-7.961,227.347-52.858c3.234,2.114,6.84,3.98,10.448,5.472c4.229,3.856,306.819,107.828,312.291,109.694
		C1604.191,1482.74,1604.191,1482.616,1604.067,1482.492z"/>
</g>
</svg>
